<?xml version="1.0" encoding="utf-8"?>
<!-- Generator: Adobe Illustrator 16.0.0, SVG Export Plug-In . SVG Version: 6.00 Build 0)  -->
<!DOCTYPE svg PUBLIC "-//W3C//DTD SVG 1.1//EN" "http://www.w3.org/Graphics/SVG/1.1/DTD/svg11.dtd">
<svg version="1.1" id="Layer_1" xmlns="http://www.w3.org/2000/svg" xmlns:xlink="http://www.w3.org/1999/xlink" x="0px" y="0px"
	 width="512px" height="512px" viewBox="0 0 512 512" enable-background="new 0 0 512 512" xml:space="preserve">
<g>
	<path fill="#E8F5FF" d="M-1.633-45.898c-4.21,0.817-6.141-5.158-8.535-7.794c-1.956-2.151-4.789-2.808-7.545-3.169
		c-4.414-0.578-8.909-0.452-13.314,0.108c-4.333,0.552-8.456,2.29-12.623,3.502c-0.513,0.149-0.549,0.651-0.323,1.007
		c0.219,1.31,1.577,1.839,3.478,1.913c-0.433,1.729,2.43,3.021,3.972,3.311c0.086,0.017,0.174,0.023,0.261,0.036
		c-0.483,1.154,0.921,2.396,2.421,2.407c0.295,0.002,0.602-0.021,0.906-0.037c-0.388,1.201,1.482,1.806,2.967,1.876
		c0.84,0.04,1.637-0.067,2.402-0.271c0.146,0.97,1.603,1.566,3.001,1.465c0.3-0.021,0.601-0.089,0.901-0.148
		c0.199,1.1,2.129,1.423,3.479,1.089c0.002,1.586,1.96,1.956,3.562,1.125c0.315-0.164,0.641-0.331,0.973-0.503
		c0.25,1.608,1.71,1.978,3.379,1.035c0.219-0.123,0.447-0.259,0.68-0.407c0.375,1.344,1.547,1.907,2.996,1.038
		c0.594-0.357,1.204-0.841,1.758-1.396c0.625,1.151,1.932,1.139,3.223,0.411c2.048-1.154,2.542-3.186,3.286-5.204
		C-0.597-45.026-1.103-45.493-1.633-45.898z"/>
	<path fill="#F5FAFF" d="M-4.119-44.43c-1.359,1.276-2.87,0.865-3.385-1.095c-1.867,0.739-3.609,0.059-2.989-1.592
		c-2.028,0.353-3.448-0.946-2.595-2.786c-1.411,0.301-3.198,0.349-3.672-0.871c-0.312-0.801,0.071-1.49,0.686-2.017
		c-1.43-0.102-2.759-0.563-3.56-1.95c-0.442-0.765-0.486-1.651-0.127-2.334c-3.75-0.311-7.54-0.153-11.265,0.32
		c-4.333,0.552-8.456,2.29-12.623,3.502c-0.513,0.149-0.549,0.651-0.323,1.007c0.219,1.31,1.577,1.839,3.478,1.913
		c-0.433,1.729,2.43,3.021,3.972,3.311c0.086,0.017,0.174,0.023,0.261,0.036c-0.483,1.154,0.921,2.396,2.421,2.407
		c0.295,0.002,0.602-0.021,0.906-0.037c-0.388,1.201,1.482,1.806,2.967,1.876c0.84,0.04,1.637-0.067,2.402-0.271
		c0.146,0.97,1.603,1.566,3.001,1.465c0.3-0.021,0.601-0.089,0.901-0.148c0.199,1.1,2.129,1.423,3.479,1.089
		c0.002,1.586,1.96,1.956,3.562,1.125c0.315-0.164,0.641-0.331,0.973-0.503c0.25,1.608,1.71,1.978,3.379,1.035
		c0.219-0.123,0.447-0.259,0.68-0.407c0.375,1.344,1.547,1.907,2.996,1.038C-8-38.674-7.39-39.158-6.836-39.713
		c0.625,1.151,1.932,1.139,3.223,0.411c1.916-1.079,2.472-2.926,3.145-4.813C-1.743-43.004-3.548-42.785-4.119-44.43z"/>
	<path fill="#FFFFFF" d="M-4.119-44.43c-1.359,1.276-2.87,0.865-3.385-1.095c-1.867,0.739-3.609,0.059-2.989-1.592
		c-2.028,0.353-3.448-0.946-2.595-2.786c-0.442,0.095-0.92,0.158-1.385,0.17c-1.3,0.735-2.801,1.008-3.219-0.446
		c-1.694,1.183-3.421,1.381-3.667-0.83c-1.319,0.424-2.821,0.188-3.164-0.485c-0.925,0.463-1.938,0.769-2.674,0.161
		c-0.739-0.611-0.546-1.299-0.15-1.971c-2.605,0.592-4.906-1.131-4.179-3.369c-4.15,0.616-8.117,2.257-12.123,3.422
		c-0.513,0.149-0.549,0.651-0.323,1.007c0.219,1.31,1.577,1.839,3.478,1.913c-0.433,1.729,2.43,3.021,3.972,3.311
		c0.086,0.017,0.174,0.023,0.261,0.036c-0.483,1.154,0.921,2.396,2.421,2.407c0.295,0.002,0.602-0.021,0.906-0.037
		c-0.388,1.201,1.482,1.806,2.967,1.876c0.84,0.04,1.637-0.067,2.402-0.271c0.146,0.97,1.603,1.566,3.001,1.465
		c0.3-0.021,0.601-0.089,0.901-0.148c0.199,1.1,2.129,1.423,3.479,1.089c0.002,1.586,1.96,1.956,3.562,1.125
		c0.315-0.164,0.641-0.331,0.973-0.503c0.25,1.608,1.71,1.978,3.379,1.035c0.219-0.123,0.447-0.259,0.68-0.407
		c0.375,1.344,1.547,1.907,2.996,1.038C-8-38.672-7.39-39.156-6.836-39.711c0.625,1.151,1.932,1.139,3.223,0.411
		c1.916-1.079,2.472-2.926,3.145-4.812C-1.743-43.004-3.548-42.785-4.119-44.43z"/>
</g>
<g>
	<path fill="#E8F5FF" d="M18.204-36.017c3.594,0.365,4.665-5.782,6.427-8.658c1.438-2.347,3.747-3.302,6.019-3.954
		c3.638-1.044,7.407-1.398,11.141-1.31c3.672,0.087,7.276,1.376,10.871,2.138c0.442,0.095,0.518,0.589,0.361,0.967
		c-0.065,1.326-1.15,1.997-2.733,2.272c0.519,1.673-1.757,3.263-3.02,3.715c-0.071,0.025-0.144,0.041-0.215,0.062
		c0.508,1.097-0.552,2.48-1.805,2.652c-0.246,0.033-0.505,0.043-0.761,0.06c0.434,1.153-1.076,1.955-2.31,2.182
		c-0.699,0.129-1.375,0.107-2.034-0.014c-0.034,0.98-1.197,1.727-2.375,1.776c-0.253,0.011-0.51-0.024-0.766-0.05
		c-0.067,1.114-1.651,1.642-2.809,1.453c0.142,1.578-1.461,2.153-2.876,1.498c-0.278-0.129-0.566-0.26-0.859-0.397
		c-0.063,1.626-1.25,2.148-2.731,1.389c-0.193-0.1-0.397-0.21-0.605-0.333c-0.19,1.376-1.12,2.061-2.41,1.352
		c-0.529-0.292-1.083-0.708-1.597-1.202c-0.418,1.211-1.511,1.338-2.657,0.751c-1.817-0.929-2.414-2.896-3.22-4.824
		C17.417-35.039,17.798-35.557,18.204-36.017z"/>
	<path fill="#F5FAFF" d="M20.416-34.822c1.252,1.125,2.477,0.555,2.73-1.449c1.627,0.536,3.022-0.326,2.354-1.901
		c1.729,0.135,2.796-1.308,1.917-3.046c1.207,0.15,2.704,0.007,2.99-1.256c0.188-0.83-0.195-1.474-0.756-1.932
		c1.186-0.254,2.255-0.854,2.799-2.318c0.3-0.808,0.257-1.693-0.106-2.334c3.107-0.708,6.289-0.955,9.447-0.88
		c3.672,0.087,7.276,1.376,10.871,2.138c0.442,0.095,0.518,0.589,0.361,0.967c-0.065,1.326-1.15,1.997-2.733,2.272
		c0.519,1.673-1.757,3.263-3.02,3.715c-0.071,0.025-0.144,0.041-0.215,0.062c0.508,1.097-0.552,2.48-1.805,2.652
		c-0.246,0.033-0.505,0.043-0.761,0.06c0.434,1.153-1.076,1.955-2.31,2.182c-0.699,0.129-1.375,0.107-2.034-0.014
		c-0.034,0.98-1.197,1.727-2.375,1.776c-0.253,0.011-0.51-0.024-0.766-0.05c-0.067,1.114-1.651,1.642-2.809,1.453
		c0.142,1.578-1.461,2.153-2.876,1.498c-0.278-0.129-0.566-0.26-0.859-0.397c-0.063,1.626-1.25,2.148-2.731,1.389
		c-0.193-0.1-0.397-0.21-0.605-0.333c-0.19,1.376-1.12,2.061-2.41,1.352c-0.529-0.292-1.083-0.708-1.597-1.202
		c-0.418,1.211-1.511,1.338-2.657,0.751c-1.7-0.869-2.333-2.646-3.066-4.449C18.558-33.151,20.088-33.125,20.416-34.822z"/>
	<path fill="#FFFFFF" d="M20.416-34.822c1.252,1.125,2.477,0.555,2.73-1.449c1.627,0.536,3.022-0.326,2.354-1.901
		c1.729,0.135,2.796-1.308,1.917-3.046c0.378,0.048,0.784,0.059,1.173,0.022c1.155,0.592,2.434,0.705,2.651-0.786
		c1.523,0.996,2.984,1.009,2.99-1.215c1.141,0.281,2.375-0.114,2.601-0.82c0.815,0.363,1.689,0.558,2.25-0.125
		c0.562-0.686,0.338-1.35-0.054-1.976c2.232,0.312,3.998-1.646,3.188-3.794c3.526,0.171,6.991,1.38,10.446,2.112
		c0.442,0.095,0.518,0.589,0.361,0.967c-0.065,1.326-1.15,1.997-2.733,2.272c0.519,1.673-1.757,3.263-3.02,3.715
		c-0.071,0.025-0.144,0.041-0.215,0.062c0.508,1.097-0.552,2.48-1.805,2.652c-0.246,0.033-0.505,0.043-0.761,0.06
		c0.434,1.153-1.076,1.955-2.31,2.182c-0.699,0.129-1.375,0.107-2.034-0.014c-0.034,0.98-1.197,1.727-2.375,1.776
		c-0.253,0.011-0.51-0.024-0.766-0.05c-0.067,1.114-1.651,1.642-2.809,1.453c0.142,1.578-1.461,2.153-2.876,1.498
		c-0.278-0.129-0.566-0.26-0.859-0.397c-0.063,1.626-1.25,2.148-2.731,1.389c-0.193-0.1-0.397-0.21-0.605-0.333
		c-0.19,1.376-1.12,2.061-2.41,1.352c-0.529-0.292-1.083-0.708-1.597-1.202c-0.418,1.211-1.511,1.338-2.657,0.751
		c-1.7-0.869-2.333-2.646-3.066-4.449C18.558-33.151,20.088-33.125,20.416-34.822z"/>
</g>
<g>
	<path fill="#E8F5FF" d="M239.204,162.983c3.594,0.365,4.665-5.782,6.427-8.658c1.438-2.347,3.747-3.302,6.019-3.954
		c3.638-1.044,7.406-1.398,11.141-1.31c3.672,0.087,7.276,1.376,10.871,2.138c0.441,0.095,0.518,0.589,0.361,0.967
		c-0.065,1.326-1.15,1.997-2.733,2.272c0.519,1.673-1.757,3.263-3.021,3.715c-0.07,0.025-0.144,0.041-0.215,0.062
		c0.508,1.097-0.551,2.48-1.805,2.652c-0.246,0.033-0.505,0.043-0.761,0.06c0.435,1.153-1.076,1.955-2.31,2.182
		c-0.699,0.129-1.375,0.107-2.035-0.014c-0.033,0.98-1.196,1.727-2.375,1.776c-0.252,0.011-0.51-0.024-0.766-0.05
		c-0.066,1.114-1.651,1.642-2.809,1.453c0.142,1.578-1.461,2.153-2.876,1.498c-0.278-0.129-0.566-0.26-0.859-0.397
		c-0.063,1.626-1.25,2.148-2.731,1.389c-0.193-0.1-0.397-0.21-0.605-0.333c-0.19,1.376-1.12,2.061-2.41,1.352
		c-0.529-0.292-1.083-0.708-1.597-1.202c-0.418,1.211-1.511,1.338-2.657,0.751c-1.817-0.929-2.414-2.896-3.22-4.824
		C238.417,163.961,238.798,163.443,239.204,162.983z"/>
	<path fill="#F5FAFF" d="M241.416,164.178c1.252,1.125,2.477,0.555,2.73-1.449c1.627,0.536,3.022-0.326,2.354-1.901
		c1.729,0.135,2.796-1.308,1.917-3.046c1.207,0.15,2.704,0.007,2.99-1.256c0.188-0.83-0.195-1.474-0.756-1.932
		c1.186-0.254,2.255-0.854,2.799-2.318c0.3-0.808,0.257-1.693-0.106-2.334c3.107-0.708,6.289-0.955,9.447-0.88
		c3.672,0.087,7.276,1.376,10.871,2.138c0.441,0.095,0.518,0.589,0.361,0.967c-0.065,1.326-1.15,1.997-2.733,2.272
		c0.519,1.673-1.757,3.263-3.021,3.715c-0.07,0.025-0.144,0.041-0.215,0.062c0.508,1.097-0.551,2.48-1.805,2.652
		c-0.246,0.033-0.505,0.043-0.761,0.06c0.435,1.153-1.076,1.955-2.31,2.182c-0.699,0.129-1.375,0.107-2.035-0.014
		c-0.033,0.98-1.196,1.727-2.375,1.776c-0.252,0.011-0.51-0.024-0.766-0.05c-0.066,1.114-1.651,1.642-2.809,1.453
		c0.142,1.578-1.461,2.153-2.876,1.498c-0.278-0.129-0.566-0.26-0.859-0.397c-0.063,1.626-1.25,2.148-2.731,1.389
		c-0.193-0.1-0.397-0.21-0.605-0.333c-0.19,1.376-1.12,2.061-2.41,1.352c-0.529-0.292-1.083-0.708-1.597-1.202
		c-0.418,1.211-1.511,1.338-2.657,0.751c-1.7-0.869-2.333-2.646-3.066-4.449C239.558,165.849,241.088,165.875,241.416,164.178z"/>
	<path fill="#FFFFFF" d="M241.416,164.178c1.252,1.125,2.477,0.555,2.73-1.449c1.627,0.536,3.022-0.326,2.354-1.901
		c1.729,0.135,2.796-1.308,1.917-3.046c0.378,0.048,0.784,0.059,1.173,0.022c1.155,0.592,2.434,0.705,2.651-0.786
		c1.523,0.996,2.984,1.009,2.99-1.215c1.141,0.281,2.375-0.114,2.601-0.82c0.815,0.363,1.689,0.558,2.25-0.125
		c0.563-0.686,0.338-1.35-0.054-1.976c2.231,0.312,3.998-1.646,3.188-3.794c3.525,0.171,6.99,1.38,10.445,2.112
		c0.441,0.095,0.518,0.589,0.361,0.967c-0.065,1.326-1.15,1.997-2.733,2.272c0.519,1.673-1.757,3.263-3.021,3.715
		c-0.07,0.025-0.144,0.041-0.215,0.062c0.508,1.097-0.551,2.48-1.805,2.652c-0.246,0.033-0.505,0.043-0.761,0.06
		c0.435,1.153-1.076,1.955-2.31,2.182c-0.699,0.129-1.375,0.107-2.035-0.014c-0.033,0.98-1.196,1.727-2.375,1.776
		c-0.252,0.011-0.51-0.024-0.766-0.05c-0.066,1.114-1.651,1.642-2.809,1.453c0.142,1.578-1.461,2.153-2.876,1.498
		c-0.278-0.129-0.566-0.26-0.859-0.397c-0.063,1.626-1.25,2.148-2.731,1.389c-0.193-0.1-0.397-0.21-0.605-0.333
		c-0.19,1.376-1.12,2.061-2.41,1.352c-0.529-0.292-1.083-0.708-1.597-1.202c-0.418,1.211-1.511,1.338-2.657,0.751
		c-1.7-0.869-2.333-2.646-3.066-4.449C239.558,165.849,241.088,165.875,241.416,164.178z"/>
</g>
<g>
	<path fill="#E8F5FF" d="M6.473-17.594c3.594,0.365,4.665-5.782,6.427-8.658c1.438-2.347,3.747-3.302,6.019-3.954
		c3.638-1.044,7.406-1.398,11.141-1.31c3.672,0.087,7.276,1.376,10.871,2.138c0.441,0.095,0.518,0.589,0.361,0.967
		c-0.065,1.326-1.15,1.997-2.733,2.272c0.519,1.673-1.757,3.263-3.021,3.715c-0.07,0.025-0.144,0.041-0.215,0.062
		c0.508,1.097-0.551,2.48-1.805,2.652c-0.246,0.033-0.505,0.043-0.761,0.06c0.435,1.153-1.076,1.955-2.31,2.182
		c-0.699,0.129-1.375,0.107-2.035-0.014c-0.033,0.98-1.196,1.727-2.375,1.776c-0.252,0.011-0.51-0.024-0.766-0.05
		c-0.066,1.114-1.651,1.642-2.809,1.453c0.142,1.578-1.461,2.153-2.876,1.498c-0.278-0.129-0.566-0.26-0.859-0.397
		c-0.063,1.626-1.25,2.148-2.731,1.389c-0.193-0.1-0.397-0.21-0.605-0.333c-0.19,1.376-1.12,2.061-2.41,1.352
		c-0.529-0.292-1.083-0.708-1.597-1.202c-0.418,1.211-1.511,1.338-2.657,0.751c-1.817-0.929-2.414-2.896-3.22-4.824
		C5.686-16.616,6.067-17.134,6.473-17.594z"/>
	<path fill="#F5FAFF" d="M8.685-16.399c1.252,1.125,2.477,0.555,2.73-1.449c1.627,0.536,3.022-0.326,2.354-1.901
		c1.729,0.135,2.796-1.308,1.917-3.046c1.207,0.15,2.704,0.007,2.99-1.256c0.188-0.83-0.195-1.474-0.756-1.932
		c1.186-0.254,2.255-0.854,2.799-2.318c0.3-0.808,0.257-1.693-0.106-2.334c3.107-0.708,6.289-0.955,9.447-0.88
		c3.672,0.087,7.276,1.376,10.871,2.138c0.441,0.095,0.518,0.589,0.361,0.967c-0.065,1.326-1.15,1.997-2.733,2.272
		c0.519,1.673-1.757,3.263-3.021,3.715c-0.07,0.025-0.144,0.041-0.215,0.062c0.508,1.097-0.551,2.48-1.805,2.652
		c-0.246,0.033-0.505,0.043-0.761,0.06c0.435,1.153-1.076,1.955-2.31,2.182c-0.699,0.129-1.375,0.107-2.035-0.014
		c-0.033,0.98-1.196,1.727-2.375,1.776c-0.252,0.011-0.51-0.024-0.766-0.05c-0.066,1.114-1.651,1.642-2.809,1.453
		c0.142,1.578-1.461,2.153-2.876,1.498c-0.278-0.129-0.566-0.26-0.859-0.397c-0.063,1.626-1.25,2.148-2.731,1.389
		c-0.193-0.1-0.397-0.21-0.605-0.333c-0.19,1.376-1.12,2.061-2.41,1.352c-0.529-0.292-1.083-0.708-1.597-1.202
		c-0.418,1.211-1.511,1.338-2.657,0.751c-1.7-0.869-2.333-2.646-3.066-4.449C6.827-14.728,8.357-14.702,8.685-16.399z"/>
	<path fill="#FFFFFF" d="M8.685-16.399c1.252,1.125,2.477,0.555,2.73-1.449c1.627,0.536,3.022-0.326,2.354-1.901
		c1.729,0.135,2.796-1.308,1.917-3.046c0.378,0.048,0.784,0.059,1.173,0.022c1.155,0.592,2.434,0.705,2.651-0.786
		c1.523,0.996,2.984,1.009,2.99-1.215c1.141,0.281,2.375-0.114,2.601-0.82c0.815,0.363,1.689,0.558,2.25-0.125
		c0.563-0.686,0.338-1.35-0.054-1.976c2.231,0.312,3.998-1.646,3.188-3.794c3.525,0.171,6.99,1.38,10.445,2.112
		c0.441,0.095,0.518,0.589,0.361,0.967c-0.065,1.326-1.15,1.997-2.733,2.272c0.519,1.673-1.757,3.263-3.021,3.715
		c-0.07,0.025-0.144,0.041-0.215,0.062c0.508,1.097-0.551,2.48-1.805,2.652c-0.246,0.033-0.505,0.043-0.761,0.06
		c0.435,1.153-1.076,1.955-2.31,2.182c-0.699,0.129-1.375,0.107-2.035-0.014c-0.033,0.98-1.196,1.727-2.375,1.776
		c-0.252,0.011-0.51-0.024-0.766-0.05c-0.066,1.114-1.651,1.642-2.809,1.453c0.142,1.578-1.461,2.153-2.876,1.498
		c-0.278-0.129-0.566-0.26-0.859-0.397c-0.063,1.626-1.25,2.148-2.731,1.389c-0.193-0.1-0.397-0.21-0.605-0.333
		c-0.19,1.376-1.12,2.061-2.41,1.352c-0.529-0.292-1.083-0.708-1.597-1.202c-0.418,1.211-1.511,1.338-2.657,0.751
		c-1.7-0.869-2.333-2.646-3.066-4.449C6.827-14.728,8.357-14.702,8.685-16.399z"/>
</g>
<g>
	<path fill="#E8F5FF" d="M-39.251-7.084c3.594,0.365,4.665-5.782,6.427-8.658c1.438-2.347,3.747-3.302,6.019-3.954
		c3.638-1.044,7.406-1.398,11.141-1.31c3.672,0.087,7.276,1.376,10.871,2.138c0.441,0.095,0.518,0.589,0.361,0.967
		c-0.065,1.326-1.15,1.997-2.733,2.272c0.519,1.673-1.757,3.263-3.021,3.715c-0.07,0.025-0.144,0.041-0.215,0.062
		c0.508,1.097-0.551,2.48-1.805,2.652c-0.246,0.033-0.505,0.043-0.761,0.06c0.435,1.153-1.076,1.955-2.31,2.182
		c-0.699,0.129-1.375,0.107-2.035-0.014c-0.033,0.98-1.196,1.727-2.375,1.776c-0.252,0.011-0.51-0.024-0.766-0.05
		c-0.066,1.114-1.651,1.642-2.809,1.453c0.142,1.578-1.461,2.153-2.876,1.498c-0.278-0.129-0.566-0.26-0.859-0.397
		c-0.063,1.626-1.25,2.148-2.731,1.389c-0.193-0.1-0.397-0.21-0.605-0.333c-0.19,1.376-1.12,2.061-2.41,1.352
		c-0.529-0.292-1.083-0.708-1.597-1.202c-0.418,1.211-1.511,1.338-2.657,0.751c-1.817-0.929-2.414-2.896-3.22-4.824
		C-40.038-6.106-39.657-6.624-39.251-7.084z"/>
	<path fill="#F5FAFF" d="M-37.039-5.889c1.252,1.125,2.477,0.555,2.73-1.449c1.627,0.536,3.022-0.326,2.354-1.901
		c1.729,0.135,2.796-1.308,1.917-3.046c1.207,0.15,2.704,0.007,2.99-1.256c0.188-0.83-0.195-1.474-0.756-1.932
		c1.186-0.254,2.255-0.854,2.799-2.318c0.3-0.808,0.257-1.693-0.106-2.334c3.107-0.708,6.289-0.955,9.447-0.88
		c3.672,0.087,7.276,1.376,10.871,2.138c0.441,0.095,0.518,0.589,0.361,0.967c-0.065,1.326-1.15,1.997-2.733,2.272
		c0.519,1.673-1.757,3.263-3.021,3.715c-0.07,0.025-0.144,0.041-0.215,0.062c0.508,1.097-0.551,2.48-1.805,2.652
		c-0.246,0.033-0.505,0.043-0.761,0.06c0.435,1.153-1.076,1.955-2.31,2.182c-0.699,0.129-1.375,0.107-2.035-0.014
		c-0.033,0.98-1.196,1.727-2.375,1.776c-0.252,0.011-0.51-0.024-0.766-0.05c-0.066,1.114-1.651,1.642-2.809,1.453
		c0.142,1.578-1.461,2.153-2.876,1.498c-0.278-0.129-0.566-0.26-0.859-0.397c-0.063,1.626-1.25,2.148-2.731,1.389
		c-0.193-0.1-0.397-0.21-0.605-0.333c-0.19,1.376-1.12,2.061-2.41,1.352c-0.529-0.292-1.083-0.708-1.597-1.202
		c-0.418,1.211-1.511,1.338-2.657,0.751c-1.7-0.869-2.333-2.646-3.066-4.449C-38.897-4.218-37.367-4.192-37.039-5.889z"/>
	<path fill="#FFFFFF" d="M-37.039-5.889c1.252,1.125,2.477,0.555,2.73-1.449c1.627,0.536,3.022-0.326,2.354-1.901
		c1.729,0.135,2.796-1.308,1.917-3.046c0.378,0.048,0.784,0.059,1.173,0.022c1.155,0.592,2.434,0.705,2.651-0.786
		c1.523,0.996,2.984,1.009,2.99-1.215c1.141,0.281,2.375-0.114,2.601-0.82c0.815,0.363,1.689,0.558,2.25-0.125
		c0.563-0.686,0.338-1.35-0.054-1.976c2.231,0.312,3.998-1.646,3.188-3.794c3.525,0.171,6.99,1.38,10.445,2.112
		c0.441,0.095,0.518,0.589,0.361,0.967c-0.065,1.326-1.15,1.997-2.733,2.272c0.519,1.673-1.757,3.263-3.021,3.715
		c-0.07,0.025-0.144,0.041-0.215,0.062c0.508,1.097-0.551,2.48-1.805,2.652c-0.246,0.033-0.505,0.043-0.761,0.06
		c0.435,1.153-1.076,1.955-2.31,2.182c-0.699,0.129-1.375,0.107-2.035-0.014c-0.033,0.98-1.196,1.727-2.375,1.776
		c-0.252,0.011-0.51-0.024-0.766-0.05c-0.066,1.114-1.651,1.642-2.809,1.453c0.142,1.578-1.461,2.153-2.876,1.498
		c-0.278-0.129-0.566-0.26-0.859-0.397c-0.063,1.626-1.25,2.148-2.731,1.389c-0.193-0.1-0.397-0.21-0.605-0.333
		c-0.19,1.376-1.12,2.061-2.41,1.352c-0.529-0.292-1.083-0.708-1.597-1.202c-0.418,1.211-1.511,1.338-2.657,0.751
		c-1.7-0.869-2.333-2.646-3.066-4.449C-38.897-4.218-37.367-4.192-37.039-5.889z"/>
</g>
</svg>
